<svg xmlns="http://www.w3.org/2000/svg" viewBox="0 0 189.5 193.5"><title>git</title><circle cx="94.1" cy="96.9" r="82.7" style="fill:none;stroke:#FFFFFF;stroke-miterlimit:10;stroke-width:11px"/><path d="M111.2,129.8c3.9,5.6,4.1,12,4,18.5s0,15.7,0,23.6c0,2.5,0,2.6-2.5,2.6H81.8c-2.3,0-2.5-.2-2.5-2.5V156.7l-5.3.5c-8.7.8-16.3-1.4-22.1-8.2a17.3,17.3,0,0,1-2.2-3.1c-3-4.7-5.9-9.5-9-14.1a25.1,25.1,0,0,0-3.6-3.7L35,126c2.1-1.4,4.2-1.1,6.1-.8,4.9.8,8.2,3.8,10.8,7.8a34.1,34.1,0,0,0,4.3,5.7c5.3,5.3,11.8,7,19.1,5.3,4.7-1,3.8-.5,4.5-4.8a23.5,23.5,0,0,1,2.8-8.2,8.7,8.7,0,0,0,.8-1.4c-2-.4-4-.7-5.9-1.2-7.6-1.7-14.5-4.7-20.1-10.4a31.3,31.3,0,0,1-9.2-21.6c-.2-7.2-.2-14.2,1.4-21.2a24.9,24.9,0,0,1,6.2-11.9,2.9,2.9,0,0,0,.6-2.4,30.5,30.5,0,0,1,.1-19.8c.4-1.2.8-1.4,1.9-1.1a22.8,22.8,0,0,1,10.7,6.3C71.2,48.5,73,50.7,75,53c5.2-3.7,11.3-3.8,17.3-4.2a73,73,0,0,1,19.8,1.1,60.5,60.5,0,0,1,7.2,2.5l8.1-7.7A19.6,19.6,0,0,1,136,40c1.2-.3,1.8,0,2.3,1.2,2.2,6.4,2.6,12.9.1,19.3-.4,1-.7,1.9.2,2.7a22.8,22.8,0,0,1,7,15.4,148.6,148.6,0,0,1,.8,18.8c-.6,11.6-6.3,20.3-16.3,26.2a48.3,48.3,0,0,1-17.3,5.7l-1.1.2Z" style="fill:#FFFFFF"/></svg>