<svg xmlns="http://www.w3.org/2000/svg" viewBox="0 0 189.5 193.5"><title>twitter</title><circle cx="94.1" cy="96.9" r="82.7" style="fill:none;stroke:#FFFFFF;stroke-miterlimit:10;stroke-width:11px"/><path d="M154.5,66A47.4,47.4,0,0,1,141,69.7a22.8,22.8,0,0,0,10.3-12.9,44.9,44.9,0,0,1-14.8,5.6A23.7,23.7,0,0,0,119.4,55,23.3,23.3,0,0,0,96.1,78.4a22.2,22.2,0,0,0,.5,5.3A66.1,66.1,0,0,1,48.4,59.3a23.7,23.7,0,0,0-3.2,11.8A23.3,23.3,0,0,0,55.6,90.5a22.2,22.2,0,0,1-10.5-2.8v.2a23.5,23.5,0,0,0,18.7,23,24.3,24.3,0,0,1-6.1.7,22.7,22.7,0,0,1-4.5-.3,23.7,23.7,0,0,0,21.9,16.2,46.7,46.7,0,0,1-29,10,51.2,51.2,0,0,1-5.6-.3,65.7,65.7,0,0,0,35.9,10.5c43,0,66.5-35.7,66.5-66.5,0-1.1-.1-2.1-.1-3.1A48.1,48.1,0,0,0,154.5,66Z" style="fill:#FFFFFF"/></svg>